<svg width="390" height="122" viewBox="0 0 390 122" xmlns="http://www.w3.org/2000/svg"><g fill="none" fill-rule="evenodd"><path d="M378.694 87.247h10.814c.732 0 .732 1.919 0 1.919h-35.433c-.732 0-.732-1.92 0-1.92h10.814V1.92h-10.814c-.732 0-.732-1.919 0-1.919h23.647c.815 0 .972.208.972.996v86.25M349.878 78.521c-1.556 5.58-3.03 7.647-5.509 7.647-1.987 0-3.111-1.077-3.111-3.53v-30.03c0-14.132-8.375-19.631-22.1-19.631-11.416 0-20.691 5.637-20.691 13.105 0 4.098 2.062 7.066 6.912 7.066 5.316 0 7.017-3.29 7.017-6.907 0-2.132-.833-4.205-.833-6.222 0-3.967 2.247-5.303 7.01-5.303 6.108 0 8.88 3.903 8.88 13.146V58.28c-2.967.614-6.48 1.31-9.213 1.803a97.084 97.084 0 00-3.91.78c-13.611 3.069-18.995 7.412-18.995 15.598 0 8.853 5.613 13.913 18.45 13.913 6.334 0 10.738-2.926 13.234-6.78.365-.563.672-1.151.929-1.77.318 5.177 4.549 8.43 10.461 8.43 7.969 0 11.583-4.248 12.902-11.317.106-.567-1.285-.945-1.433-.416zm-23.827 3.911c-2.112 3.188-5.016 5.137-9.083 5.137-5.194 0-7.154-3.431-7.154-11.409 0-6.853.681-9.375 2.386-11.177 1.45-1.532 3.404-2.475 7.017-3.303 2.49-.571 5.602-1.174 8.236-1.654l-.007 15.969c-.084 2.89-.542 5.15-1.395 6.437zM285.592 77.558c-1.757 5.628-4.59 9.545-8.55 9.545-1.456 0-2.453-.34-3.238-.843-1.362-.872-2.033-2.546-1.974-5.768V36.105h13.628c.858 0 .858-1.92 0-1.92H271.83V18.632c0-.785-.124-.968-.971-.968h-11.862c-.846 0-.971.183-.971.968v15.555h-9.462c-.733 0-.733 1.919 0 1.919h9.462V78.66c0 7.424 5.644 11.714 14.003 11.714 8.983 0 13.095-4.562 14.995-12.244.165-.66-1.252-1.15-1.432-.573" fill="#000"/><path fill="#EE411E" d="M209.357 107.607h3.443V15.744h-3.443z"/><path d="M180.707 61.676c0-8.389 3.588-15.475 8.49-20.213 5.454-5.271 12.943-8.486 21.83-8.486 8.885 0 16.375 3.215 21.828 8.486 4.903 4.738 8.49 11.824 8.49 20.213 0 8.389-3.587 15.475-8.49 20.212-5.453 5.271-12.943 8.487-21.829 8.487-8.886 0-16.375-3.216-21.829-8.487-4.902-4.737-8.49-11.823-8.49-20.212zm15.014 0c0 11.877 2.332 19.496 6.243 23.29 2.24 2.16 5.06 3.562 9.062 3.528 4.003.034 6.822-1.368 9.062-3.527 3.912-3.795 6.244-11.414 6.244-23.291s-2.332-19.497-6.244-23.29c-2.24-2.16-5.059-3.562-9.062-3.528-4.002-.034-6.821 1.368-9.062 3.527-3.911 3.794-6.243 11.414-6.243 23.29z" fill="#000"/><path fill="#EE411E" d="M209.357 62.017h3.443V15.744h-3.443z"/><path d="M177.613 34.186h-18.067c-.732 0-.732 1.919 0 1.919h8.107l-15.8 38.898-16.087-38.898h7.842c.733 0 .733-1.92 0-1.92h-29.159c-.858 0-.858 1.92 0 1.92h7.023l22.432 52.834c.403 1.034 3.704 1.027 4.103 0l22.038-52.834h7.568c.733 0 .733-1.92 0-1.92M101.2 34.186c.816 0 .972.207.972.995v52.066h10.815c.731 0 .731 1.919 0 1.919H77.553c-.732 0-.732-1.92 0-1.92h10.814V36.106H77.553c-.732 0-.732-1.92 0-1.92H101.2zM94.43 5.215c2.475 0 4.764.99 6.403 2.674 1.53 1.574 2.49 3.756 2.49 6.302s-.96 4.727-2.49 6.302c-1.639 1.684-3.928 2.674-6.403 2.674-2.474 0-4.764-.99-6.402-2.674-1.532-1.575-2.49-3.756-2.49-6.302s.958-4.728 2.49-6.302c1.638-1.685 3.928-2.674 6.402-2.674zM57.958 38.733c-5.216-3.968-10.577-5.756-17.13-5.756-5.23 0-10.413 2.003-15.62 6.792v-4.588c0-.788-.156-.995-.971-.995H.59c-.732 0-.732 1.919 0 1.919h10.814v84.09H.59c-.732 0-.732 1.92 0 1.92h35.912c.733 0 .733-1.92 0-1.92H25.208V83.407c5.207 4.79 10.39 6.792 15.62 6.792 6.553 0 11.914-1.789 17.13-5.756 6.968-5.3 10.539-13.435 10.539-22.854 0-9.42-3.57-17.554-10.54-22.855zm-8.896 45.59c-2.045 2.634-4.959 3.956-9.034 3.956-4.692 0-9.731-2.097-14.82-7.192V42.088c5.089-5.095 10.128-7.192 14.82-7.192 4.075 0 6.989 1.322 9.034 3.956 2.932 3.767 4.268 10.54 4.268 22.736 0 12.195-1.336 18.968-4.268 22.734z" fill="#000"/></g></svg>